<?xml version="1.0" encoding="UTF-8" standalone="no"?>
<!-- Created with Inkscape (http://www.inkscape.org/) -->

<svg
   width="512"
   height="512"
   viewBox="0 0 135.46666 135.46667"
   version="1.1"
   id="svg1"
   inkscape:export-filename="lock.png"
   inkscape:export-xdpi="96"
   inkscape:export-ydpi="96"
   inkscape:version="1.3.2 (091e20ef0f, 2023-11-25, custom)"
   sodipodi:docname="shutdown.svg"
   xmlns:inkscape="http://www.inkscape.org/namespaces/inkscape"
   xmlns:sodipodi="http://sodipodi.sourceforge.net/DTD/sodipodi-0.dtd"
   xmlns="http://www.w3.org/2000/svg"
   xmlns:svg="http://www.w3.org/2000/svg">
  <sodipodi:namedview
     id="namedview1"
     pagecolor="#ffffff"
     bordercolor="#000000"
     borderopacity="0.25"
     inkscape:showpageshadow="2"
     inkscape:pageopacity="0.0"
     inkscape:pagecheckerboard="0"
     inkscape:deskcolor="#d1d1d1"
     inkscape:document-units="mm"
     inkscape:zoom="0.33786002"
     inkscape:cx="-771.02938"
     inkscape:cy="1077.3693"
     inkscape:window-width="1896"
     inkscape:window-height="1009"
     inkscape:window-x="0"
     inkscape:window-y="0"
     inkscape:window-maximized="1"
     inkscape:current-layer="layer1" />
  <defs
     id="defs1" />
  <g
     inkscape:label="Layer 1"
     inkscape:groupmode="layer"
     id="layer1">
    <rect
       style="fill:#404040;fill-opacity:0.988235;stroke:none;stroke-width:8.055;stroke-opacity:1"
       id="rect3-5"
       width="238.31549"
       height="215.99704"
       x="-280.02145"
       y="269.20929" />
    <rect
       style="fill:#404040;fill-opacity:0.988235;stroke:none;stroke-width:8.055;stroke-opacity:1"
       id="rect6"
       width="238.31549"
       height="215.99704"
       x="-22.876337"
       y="269.20929" />
    <text
       xml:space="preserve"
       style="font-size:70.9672px;font-family:'PragmataPro Mono';-inkscape-font-specification:'PragmataPro Mono, Normal';fill:#ebddd2;fill-opacity:0.988235;stroke:none;stroke-width:8.102;stroke-opacity:1"
       x="49.150337"
       y="433.90469"
       id="text6"><tspan
         sodipodi:role="line"
         id="tspan6"
         style="fill:#ebddd2;fill-opacity:0.988235;stroke:none;stroke-width:8.102;stroke-opacity:1"
         x="49.150337"
         y="433.90469"><tspan
   style="font-style:normal;font-variant:normal;font-weight:normal;font-stretch:normal;font-size:141.111px;font-family:Sans;-inkscape-font-specification:'Sans, Normal';font-variant-ligatures:normal;font-variant-caps:normal;font-variant-numeric:normal;font-variant-east-asian:normal;fill:#ebddd2;fill-opacity:0.988235;stroke:none;stroke-width:8.102;stroke-opacity:1"
   id="tspan5">󰍀</tspan> </tspan></text>
    <path
       d="m -189.51265,140.6406 q -6.15269,0 -10.54746,-4.21898 -4.21899,-4.39478 -4.21899,-10.54746 V 23.5638 q 0,-6.152685 4.21899,-10.37167 4.39477,-4.3947746 10.54746,-4.3947746 h 102.310357 q 6.15269,0 10.37167,4.3947746 4.39478,4.218985 4.39478,10.37167 v 102.31036 q 0,6.15268 -4.39478,10.54746 -4.21898,4.21898 -10.37167,4.21898 z m 7.20743,-58.714188 h 62.23001 l -25.48969,25.665478 10.37167,10.37167 43.244587,-43.244579 -43.244587,-43.244586 q 0,0.175791 -10.37167,10.371669 l 25.48969,25.665486 h -62.23001 z"
       id="text9"
       style="font-size:175.791px;font-family:ChicagoFLF;-inkscape-font-specification:'ChicagoFLF, Normal';fill:#ebddd2;fill-opacity:0.988235;stroke-width:19.9528"
       aria-label="󰛂" />
    <path
       d="m -376.05426,371.8767 h -13.913 v -54.98949 h 13.913 z m -27.49474,0 h -13.913 v -54.98949 h 13.913 z m 32.62931,-89.60637 36.27319,36.27319 v 51.67687 l -36.27319,36.27319 h -51.67688 l -36.27318,-36.27319 v -51.67687 l 36.27318,-36.27319 z m -5.79709,13.91301 h -40.0827 l -28.15727,28.15726 v 40.08271 l 28.15727,28.15727 h 40.0827 l 28.15727,-28.15727 V 324.3406 Z"
       id="text10"
       style="font-size:165.631px;font-family:ChicagoFLF;-inkscape-font-specification:'ChicagoFLF, Normal';fill:#ebddd2;fill-opacity:0.988235;stroke-width:18.7996"
       aria-label="󰏨 " />
    <text
       xml:space="preserve"
       style="font-style:normal;font-variant:normal;font-weight:normal;font-stretch:normal;font-size:70.9673px;font-family:ChicagoFLF;-inkscape-font-specification:'ChicagoFLF, Normal';font-variant-ligatures:normal;font-variant-caps:normal;font-variant-numeric:normal;font-variant-east-asian:normal;fill:#ebddd2;fill-opacity:0.988235;stroke:none;stroke-width:8.055;stroke-opacity:1"
       x="-250.12888"
       y="426.45911"
       id="text11"><tspan
         sodipodi:role="line"
         id="tspan10"
         style="stroke-width:8.055"
         x="-250.12888"
         y="426.45911">󰒲	</tspan></text>
    <path
       d="m 67.733331,5.0841156 q 17.6661,0 31.897124,8.3423244 14.394605,8.17875 22.573355,22.57335 8.17874,14.231025 8.17874,31.733549 0,17.6661 -8.17874,32.0607 -8.17875,14.231021 -22.573355,22.409771 -14.231024,8.17875 -31.897124,8.17875 -17.829675,0 -32.224274,-8.17875 -14.231025,-8.17875 -22.409775,-22.409771 -8.0151748,-14.3946 -8.0151748,-32.0607 0,-17.502524 8.0151748,-31.733549 8.17875,-14.3946 22.409775,-22.57335 14.394599,-8.3423244 32.224274,-8.3423244 z m 0,13.9038744 q -13.576725,0 -24.045525,6.379425 -10.305224,6.21585 -16.030349,17.33895 -5.56155,11.1231 -5.56155,25.026974 0,14.06745 5.56155,25.19055 5.725125,11.123101 16.030349,17.338951 10.4688,6.21585 24.045525,6.21585 13.41315,0 23.718375,-6.21585 10.468804,-6.37943 16.193924,-17.338951 5.72513,-11.1231 5.72513,-25.19055 0,-13.903874 -5.72513,-25.026974 -5.72512,-11.1231 -16.193924,-17.33895 Q 81.146481,18.98799 67.733331,18.98799 Z m 8.5059,14.3946 v 68.21077 H 60.699606 V 33.38259 Z"
       id="text12"
       style="font-size:163.575px;font-family:ChicagoFLF;-inkscape-font-specification:'ChicagoFLF, Normal';fill:#ebddd2;fill-opacity:0.988235;stroke-width:18.5645"
       aria-label="	⏼	" />
    <path
       d="m -270.73051,101.81573 q 0,16.3026 -10.43366,28.85561 -10.27064,12.38997 -26.08416,15.97654 -15.6505,3.58657 -30.15981,-3.7496 -14.34629,-7.33617 -20.86733,-22.66061 l -14.18326,6.03196 q 5.37986,13.04208 16.3026,22.00851 10.92274,8.96643 24.4539,12.38998 13.69418,3.58657 27.55139,0.81513 13.85721,-2.60842 24.94298,-11.2488 11.08577,-8.8034 17.28076,-21.51943 6.35801,-12.71602 6.35801,-26.89929 0,-19.563118 -11.41182,-35.539666 -11.41182,-16.139574 -29.99678,-22.334562 -18.42194,-6.194988 -37.16993,-0.489078 -18.74799,5.70591 -30.64889,20.867328 V 45.897814 h -15.16142 v 40.7565 l 7.4992,7.499196 h 35.37664 V 78.992092 h -19.07404 q 7.66222,-13.531158 22.00851,-19.56312 14.50931,-6.031962 29.34468,-1.956312 14.99839,4.07565 24.4539,16.3026 9.61853,12.22695 9.61853,28.04047 z"
       id="text13"
       style="font-size:163.026px;font-family:ChicagoFLF;-inkscape-font-specification:'ChicagoFLF, Normal';fill:#ebddd2;fill-opacity:0.988235;stroke-width:18.5054"
       aria-label="" />
    <text
       xml:space="preserve"
       style="font-style:normal;font-variant:normal;font-weight:normal;font-stretch:normal;font-size:70.9673px;font-family:ChicagoFLF;-inkscape-font-specification:'ChicagoFLF, Normal';font-variant-ligatures:normal;font-variant-caps:normal;font-variant-numeric:normal;font-variant-east-asian:normal;fill:#ebddd2;fill-opacity:0.988235;stroke:none;stroke-width:8.055;stroke-opacity:1"
       x="-485.48248"
       y="238.13127"
       id="text14"><tspan
         sodipodi:role="line"
         id="tspan13"
         style="stroke-width:8.055"
         x="-485.48248"
         y="238.13127">󰗽	</tspan></text>
  </g>
</svg>
